<mxfile host="app.diagrams.net" modified="2021-12-10T06:45:10.478Z" agent="5.0 (Windows)" etag="Yno5kUfJsXc8R-5G5DJ6" version="14.1.4" type="github">
  <diagram id="NiWNFdewKMT7mrV2jJuY" name="Page-1">
    <mxGraphModel dx="1038" dy="536" grid="1" gridSize="10" guides="1" tooltips="1" connect="1" arrows="1" fold="1" page="1" pageScale="1" pageWidth="827" pageHeight="1169" math="0" shadow="0">
      <root>
        <mxCell id="0" />
        <mxCell id="1" parent="0" />
        <mxCell id="lmPQsxL3FE32rnyz3SJW-3" value="" style="edgeStyle=orthogonalEdgeStyle;rounded=0;orthogonalLoop=1;jettySize=auto;html=1;" edge="1" parent="1" source="lmPQsxL3FE32rnyz3SJW-1" target="lmPQsxL3FE32rnyz3SJW-2">
          <mxGeometry relative="1" as="geometry" />
        </mxCell>
        <mxCell id="lmPQsxL3FE32rnyz3SJW-1" value="socket" style="rounded=0;whiteSpace=wrap;html=1;" vertex="1" parent="1">
          <mxGeometry x="110" y="120" width="120" height="30" as="geometry" />
        </mxCell>
        <mxCell id="lmPQsxL3FE32rnyz3SJW-5" value="" style="edgeStyle=orthogonalEdgeStyle;rounded=0;orthogonalLoop=1;jettySize=auto;html=1;" edge="1" parent="1" source="lmPQsxL3FE32rnyz3SJW-2" target="lmPQsxL3FE32rnyz3SJW-4">
          <mxGeometry relative="1" as="geometry" />
        </mxCell>
        <mxCell id="lmPQsxL3FE32rnyz3SJW-2" value="bind" style="whiteSpace=wrap;html=1;rounded=0;" vertex="1" parent="1">
          <mxGeometry x="110" y="180" width="120" height="30" as="geometry" />
        </mxCell>
        <mxCell id="lmPQsxL3FE32rnyz3SJW-7" value="" style="edgeStyle=orthogonalEdgeStyle;rounded=0;orthogonalLoop=1;jettySize=auto;html=1;" edge="1" parent="1" source="lmPQsxL3FE32rnyz3SJW-4" target="lmPQsxL3FE32rnyz3SJW-6">
          <mxGeometry relative="1" as="geometry" />
        </mxCell>
        <mxCell id="lmPQsxL3FE32rnyz3SJW-4" value="listen" style="whiteSpace=wrap;html=1;rounded=0;" vertex="1" parent="1">
          <mxGeometry x="110" y="240" width="120" height="30" as="geometry" />
        </mxCell>
        <mxCell id="lmPQsxL3FE32rnyz3SJW-9" value="" style="edgeStyle=orthogonalEdgeStyle;rounded=0;orthogonalLoop=1;jettySize=auto;html=1;" edge="1" parent="1" source="lmPQsxL3FE32rnyz3SJW-6">
          <mxGeometry relative="1" as="geometry">
            <mxPoint x="170" y="360" as="targetPoint" />
          </mxGeometry>
        </mxCell>
        <mxCell id="lmPQsxL3FE32rnyz3SJW-6" value="accept" style="whiteSpace=wrap;html=1;rounded=0;" vertex="1" parent="1">
          <mxGeometry x="110" y="300" width="120" height="30" as="geometry" />
        </mxCell>
        <mxCell id="lmPQsxL3FE32rnyz3SJW-17" value="" style="edgeStyle=orthogonalEdgeStyle;rounded=0;orthogonalLoop=1;jettySize=auto;html=1;" edge="1" parent="1" source="lmPQsxL3FE32rnyz3SJW-39" target="lmPQsxL3FE32rnyz3SJW-16">
          <mxGeometry relative="1" as="geometry">
            <mxPoint x="170" y="560" as="sourcePoint" />
          </mxGeometry>
        </mxCell>
        <mxCell id="lmPQsxL3FE32rnyz3SJW-38" value="" style="edgeStyle=orthogonalEdgeStyle;rounded=0;orthogonalLoop=1;jettySize=auto;html=1;" edge="1" parent="1" source="lmPQsxL3FE32rnyz3SJW-16" target="lmPQsxL3FE32rnyz3SJW-37">
          <mxGeometry relative="1" as="geometry" />
        </mxCell>
        <mxCell id="lmPQsxL3FE32rnyz3SJW-16" value="关闭连接套接字" style="whiteSpace=wrap;html=1;rounded=0;" vertex="1" parent="1">
          <mxGeometry x="110" y="440" width="120" height="35.5" as="geometry" />
        </mxCell>
        <mxCell id="lmPQsxL3FE32rnyz3SJW-18" value="server主进程" style="text;html=1;strokeColor=none;fillColor=none;align=center;verticalAlign=middle;whiteSpace=wrap;rounded=0;" vertex="1" parent="1">
          <mxGeometry x="130" y="90" width="80" height="20" as="geometry" />
        </mxCell>
        <mxCell id="lmPQsxL3FE32rnyz3SJW-36" value="" style="endArrow=classic;html=1;exitX=0;exitY=0.5;exitDx=0;exitDy=0;entryX=0;entryY=0.5;entryDx=0;entryDy=0;" edge="1" parent="1" source="lmPQsxL3FE32rnyz3SJW-16" target="lmPQsxL3FE32rnyz3SJW-4">
          <mxGeometry width="50" height="50" relative="1" as="geometry">
            <mxPoint x="390" y="480" as="sourcePoint" />
            <mxPoint x="30" y="210" as="targetPoint" />
            <Array as="points">
              <mxPoint x="30" y="458" />
              <mxPoint x="30" y="260" />
            </Array>
          </mxGeometry>
        </mxCell>
        <mxCell id="lmPQsxL3FE32rnyz3SJW-37" value="关闭监听套接字" style="whiteSpace=wrap;html=1;rounded=0;" vertex="1" parent="1">
          <mxGeometry x="110" y="510" width="120" height="40" as="geometry" />
        </mxCell>
        <mxCell id="lmPQsxL3FE32rnyz3SJW-39" value="创建子进程" style="rounded=0;whiteSpace=wrap;html=1;" vertex="1" parent="1">
          <mxGeometry x="110" y="360" width="120" height="40" as="geometry" />
        </mxCell>
        <mxCell id="lmPQsxL3FE32rnyz3SJW-42" value="" style="edgeStyle=orthogonalEdgeStyle;rounded=0;orthogonalLoop=1;jettySize=auto;html=1;" edge="1" parent="1" source="lmPQsxL3FE32rnyz3SJW-40" target="lmPQsxL3FE32rnyz3SJW-41">
          <mxGeometry relative="1" as="geometry" />
        </mxCell>
        <mxCell id="lmPQsxL3FE32rnyz3SJW-40" value="关闭监听套接字" style="rounded=0;whiteSpace=wrap;html=1;" vertex="1" parent="1">
          <mxGeometry x="350" y="220" width="120" height="40" as="geometry" />
        </mxCell>
        <mxCell id="lmPQsxL3FE32rnyz3SJW-44" value="" style="edgeStyle=orthogonalEdgeStyle;rounded=0;orthogonalLoop=1;jettySize=auto;html=1;" edge="1" parent="1" source="lmPQsxL3FE32rnyz3SJW-41" target="lmPQsxL3FE32rnyz3SJW-43">
          <mxGeometry relative="1" as="geometry" />
        </mxCell>
        <mxCell id="lmPQsxL3FE32rnyz3SJW-41" value="处理连接" style="whiteSpace=wrap;html=1;rounded=0;" vertex="1" parent="1">
          <mxGeometry x="350" y="290" width="120" height="40" as="geometry" />
        </mxCell>
        <mxCell id="lmPQsxL3FE32rnyz3SJW-46" value="" style="edgeStyle=orthogonalEdgeStyle;rounded=0;orthogonalLoop=1;jettySize=auto;html=1;" edge="1" parent="1" source="lmPQsxL3FE32rnyz3SJW-43" target="lmPQsxL3FE32rnyz3SJW-45">
          <mxGeometry relative="1" as="geometry" />
        </mxCell>
        <mxCell id="lmPQsxL3FE32rnyz3SJW-43" value="关闭连接套接字" style="whiteSpace=wrap;html=1;rounded=0;" vertex="1" parent="1">
          <mxGeometry x="350" y="360" width="120" height="40" as="geometry" />
        </mxCell>
        <mxCell id="lmPQsxL3FE32rnyz3SJW-45" value="关闭子进程" style="whiteSpace=wrap;html=1;rounded=0;" vertex="1" parent="1">
          <mxGeometry x="350" y="430" width="120" height="40" as="geometry" />
        </mxCell>
        <mxCell id="lmPQsxL3FE32rnyz3SJW-47" value="" style="endArrow=classic;html=1;exitX=1;exitY=0.5;exitDx=0;exitDy=0;entryX=0;entryY=0.5;entryDx=0;entryDy=0;" edge="1" parent="1" source="lmPQsxL3FE32rnyz3SJW-39" target="lmPQsxL3FE32rnyz3SJW-40">
          <mxGeometry width="50" height="50" relative="1" as="geometry">
            <mxPoint x="390" y="380" as="sourcePoint" />
            <mxPoint x="440" y="330" as="targetPoint" />
          </mxGeometry>
        </mxCell>
        <mxCell id="lmPQsxL3FE32rnyz3SJW-48" value="server子进程" style="text;html=1;strokeColor=none;fillColor=none;align=center;verticalAlign=middle;whiteSpace=wrap;rounded=0;" vertex="1" parent="1">
          <mxGeometry x="370" y="190" width="80" height="20" as="geometry" />
        </mxCell>
      </root>
    </mxGraphModel>
  </diagram>
</mxfile>
